# MagicaVoxel @ Ephtracy

# material
mtllib Anvil.mtl
usemtl palette

# normals
vn -1 0 0
vn 1 0 0
vn 0 0 1
vn 0 0 -1
vn 0 -1 0
vn 0 1 0

# texcoords
vt 0.990234 0.5

# verts
v -12 7 -0
v -12 7 -1
v -12 8 -0
v -12 8 -1
v -11 6 -0
v -11 6 -1
v -11 7 1
v -11 7 -0
v -11 7 -1
v -11 7 -2
v -11 8 1
v -11 8 -0
v -11 8 -1
v -11 8 -2
v -10 5 -0
v -10 5 -1
v -10 6 1
v -10 6 -0
v -10 6 -1
v -10 6 -2
v -10 7 1
v -10 7 -0
v -10 7 -1
v -10 7 -2
v -8 5 1
v -8 5 -0
v -8 5 -1
v -8 5 -2
v -8 6 1
v -8 6 -0
v -8 6 -1
v -8 6 -2
v -8 7 2
v -8 7 1
v -8 7 -2
v -8 7 -3
v -8 8 2
v -8 8 1
v -8 8 -2
v -8 8 -3
v -7 0 3
v -7 0 -0
v -7 0 -1
v -7 0 -4
v -7 1 3
v -7 1 -0
v -7 1 -1
v -7 1 -4
v -6 0 -0
v -6 0 -1
v -6 1 2
v -6 1 -0
v -6 1 -1
v -6 1 -3
v -6 2 2
v -6 2 -0
v -6 2 -1
v -6 2 -3
v -6 4 -0
v -6 4 -1
v -6 5 -0
v -6 5 -1
v -6 8 2
v -6 8 -3
v -6 9 2
v -6 9 -3
v -5 1 -0
v -5 1 -1
v -5 2 1
v -5 2 -0
v -5 2 -1
v -5 2 -2
v -5 4 -0
v -5 4 -1
v -5 5 1
v -5 5 -0
v -5 5 -1
v -5 5 -2
v 0 0 1
v 0 0 -0
v 0 0 -1
v 0 0 -2
v 0 1 1
v 0 1 -0
v 0 1 -1
v 0 1 -2
v 0 3 1
v 0 3 -0
v 0 3 -1
v 0 3 -2
v 0 4 1
v 0 4 -0
v 0 4 -1
v 0 4 -2
v 1 0 2
v 1 0 1
v 1 0 -2
v 1 0 -3
v 1 1 2
v 1 1 1
v 1 1 -0
v 1 1 -1
v 1 1 -2
v 1 1 -3
v 1 3 1
v 1 3 -0
v 1 3 -1
v 1 3 -2
v 2 0 3
v 2 0 2
v 2 0 -3
v 2 0 -4
v 2 1 3
v 2 1 2
v 2 1 1
v 2 1 -2
v 2 1 -3
v 2 1 -4
v 2 2 2
v 2 2 1
v 2 2 -2
v 2 2 -3
v -3 0 3
v -3 0 2
v -3 0 -3
v -3 0 -4
v -3 1 3
v -3 1 2
v -3 1 -0
v -3 1 -1
v -3 1 -3
v -3 1 -4
v -3 2 2
v -3 2 1
v -3 2 -2
v -3 2 -3
v -3 3 1
v -3 3 -0
v -3 3 -1
v -3 3 -2
v -2 0 2
v -2 0 -0
v -2 0 -1
v -2 0 -3
v -2 1 2
v -2 1 -0
v -2 1 -1
v -2 1 -3
v -2 3 1
v -2 3 -0
v -2 3 -1
v -2 3 -2
v -2 4 1
v -2 4 -0
v -2 4 -1
v -2 4 -2
v 3 3 1
v 3 3 -0
v 3 3 -1
v 3 3 -2
v 3 5 1
v 3 5 -0
v 3 5 -1
v 3 5 -2
v 4 1 -0
v 4 1 -1
v 4 2 1
v 4 2 -0
v 4 2 -1
v 4 2 -2
v 4 3 1
v 4 3 -0
v 4 3 -1
v 4 3 -2
v 4 5 -0
v 4 5 -1
v 5 0 -0
v 5 0 -1
v 5 1 2
v 5 1 -0
v 5 1 -1
v 5 1 -3
v 5 2 2
v 5 2 -0
v 5 2 -1
v 5 2 -3
v 5 5 1
v 5 5 -2
v 5 6 1
v 5 6 -2
v 6 0 3
v 6 0 -0
v 6 0 -1
v 6 0 -4
v 6 1 3
v 6 1 -0
v 6 1 -1
v 6 1 -4
v 6 6 1
v 6 6 -2
v 6 7 1
v 6 7 -2
v 8 7 2
v 8 7 1
v 8 7 -2
v 8 7 -3
v 8 8 2
v 8 8 1
v 8 8 -2
v 8 8 -3
v 9 7 1
v 9 7 -2
v 9 8 2
v 9 8 1
v 9 8 -2
v 9 8 -3
v 9 9 2
v 9 9 1
v 9 9 -2
v 9 9 -3
v 10 8 1
v 10 8 -2
v 10 9 1
v 10 9 -2
v -7 0 3
v -7 1 3
v -3 0 3
v -3 1 3
v 2 0 3
v 2 1 3
v 6 0 3
v 6 1 3
v -8 7 2
v -8 8 2
v -6 1 2
v -6 2 2
v -6 8 2
v -6 9 2
v -3 0 2
v -3 1 2
v -3 2 2
v -2 0 2
v -2 1 2
v 1 0 2
v 1 1 2
v 2 0 2
v 2 1 2
v 2 2 2
v 5 1 2
v 5 2 2
v 8 7 2
v 8 8 2
v 9 8 2
v 9 9 2
v -11 7 1
v -11 8 1
v -10 6 1
v -10 7 1
v -8 5 1
v -8 6 1
v -8 7 1
v -8 8 1
v -5 2 1
v -5 5 1
v -3 2 1
v -3 3 1
v -2 3 1
v -2 4 1
v 0 0 1
v 0 1 1
v 0 3 1
v 0 4 1
v 1 0 1
v 1 1 1
v 1 3 1
v 2 1 1
v 2 2 1
v 3 3 1
v 3 5 1
v 4 2 1
v 4 3 1
v 5 5 1
v 5 6 1
v 6 6 1
v 6 7 1
v 8 7 1
v 8 8 1
v 9 7 1
v 9 8 1
v 9 9 1
v 10 8 1
v 10 9 1
v -12 7 -0
v -12 8 -0
v -11 6 -0
v -11 7 -0
v -11 8 -0
v -10 5 -0
v -10 6 -0
v -10 7 -0
v -8 5 -0
v -8 6 -0
v -6 4 -0
v -6 5 -0
v -5 4 -0
v -5 5 -0
v -3 1 -0
v -3 3 -0
v -2 0 -0
v -2 1 -0
v -2 3 -0
v -2 4 -0
v 0 0 -0
v 0 1 -0
v 0 3 -0
v 0 4 -0
v 1 1 -0
v 1 3 -0
v 3 3 -0
v 3 5 -0
v 4 3 -0
v 4 5 -0
v -7 0 -1
v -7 1 -1
v -6 0 -1
v -6 1 -1
v -6 2 -1
v -5 1 -1
v -5 2 -1
v 4 1 -1
v 4 2 -1
v 5 0 -1
v 5 1 -1
v 5 2 -1
v 6 0 -1
v 6 1 -1
v -7 0 -0
v -7 1 -0
v -6 0 -0
v -6 1 -0
v -6 2 -0
v -5 1 -0
v -5 2 -0
v 4 1 -0
v 4 2 -0
v 5 0 -0
v 5 1 -0
v 5 2 -0
v 6 0 -0
v 6 1 -0
v -12 7 -1
v -12 8 -1
v -11 6 -1
v -11 7 -1
v -11 8 -1
v -10 5 -1
v -10 6 -1
v -10 7 -1
v -8 5 -1
v -8 6 -1
v -6 4 -1
v -6 5 -1
v -5 4 -1
v -5 5 -1
v -3 1 -1
v -3 3 -1
v -2 0 -1
v -2 1 -1
v -2 3 -1
v -2 4 -1
v 0 0 -1
v 0 1 -1
v 0 3 -1
v 0 4 -1
v 1 1 -1
v 1 3 -1
v 3 3 -1
v 3 5 -1
v 4 3 -1
v 4 5 -1
v -11 7 -2
v -11 8 -2
v -10 6 -2
v -10 7 -2
v -8 5 -2
v -8 6 -2
v -8 7 -2
v -8 8 -2
v -5 2 -2
v -5 5 -2
v -3 2 -2
v -3 3 -2
v -2 3 -2
v -2 4 -2
v 0 0 -2
v 0 1 -2
v 0 3 -2
v 0 4 -2
v 1 0 -2
v 1 1 -2
v 1 3 -2
v 2 1 -2
v 2 2 -2
v 3 3 -2
v 3 5 -2
v 4 2 -2
v 4 3 -2
v 5 5 -2
v 5 6 -2
v 6 6 -2
v 6 7 -2
v 8 7 -2
v 8 8 -2
v 9 7 -2
v 9 8 -2
v 9 9 -2
v 10 8 -2
v 10 9 -2
v -8 7 -3
v -8 8 -3
v -6 1 -3
v -6 2 -3
v -6 8 -3
v -6 9 -3
v -3 0 -3
v -3 1 -3
v -3 2 -3
v -2 0 -3
v -2 1 -3
v 1 0 -3
v 1 1 -3
v 2 0 -3
v 2 1 -3
v 2 2 -3
v 5 1 -3
v 5 2 -3
v 8 7 -3
v 8 8 -3
v 9 8 -3
v 9 9 -3
v -7 0 -4
v -7 1 -4
v -3 0 -4
v -3 1 -4
v 2 0 -4
v 2 1 -4
v 6 0 -4
v 6 1 -4
v -7 0 3
v -3 0 3
v 2 0 3
v 6 0 3
v -3 0 2
v -2 0 2
v 1 0 2
v 2 0 2
v 0 0 1
v 1 0 1
v -7 0 -0
v -6 0 -0
v -2 0 -0
v 0 0 -0
v 5 0 -0
v 6 0 -0
v -7 0 -1
v -6 0 -1
v -2 0 -1
v 0 0 -1
v 5 0 -1
v 6 0 -1
v 0 0 -2
v 1 0 -2
v -3 0 -3
v -2 0 -3
v 1 0 -3
v 2 0 -3
v -7 0 -4
v -3 0 -4
v 2 0 -4
v 6 0 -4
v -3 3 1
v -2 3 1
v 0 3 1
v 1 3 1
v -3 3 -0
v -2 3 -0
v 0 3 -0
v 1 3 -0
v -3 3 -1
v -2 3 -1
v 0 3 -1
v 1 3 -1
v -3 3 -2
v -2 3 -2
v 0 3 -2
v 1 3 -2
v -2 4 1
v 0 4 1
v -6 4 -0
v -5 4 -0
v -2 4 -0
v 0 4 -0
v -6 4 -1
v -5 4 -1
v -2 4 -1
v 0 4 -1
v -2 4 -2
v 0 4 -2
v -8 5 1
v -5 5 1
v 3 5 1
v 5 5 1
v -10 5 -0
v -8 5 -0
v -6 5 -0
v -5 5 -0
v 3 5 -0
v 4 5 -0
v -10 5 -1
v -8 5 -1
v -6 5 -1
v -5 5 -1
v 3 5 -1
v 4 5 -1
v -8 5 -2
v -5 5 -2
v 3 5 -2
v 5 5 -2
v -10 6 1
v -8 6 1
v 5 6 1
v 6 6 1
v -11 6 -0
v -10 6 -0
v -8 6 -0
v -11 6 -1
v -10 6 -1
v -8 6 -1
v -10 6 -2
v -8 6 -2
v 5 6 -2
v 6 6 -2
v -8 7 2
v 8 7 2
v -11 7 1
v -10 7 1
v -8 7 1
v 6 7 1
v 8 7 1
v 9 7 1
v -12 7 -0
v -11 7 -0
v -10 7 -0
v -12 7 -1
v -11 7 -1
v -10 7 -1
v -11 7 -2
v -10 7 -2
v -8 7 -2
v 6 7 -2
v 8 7 -2
v 9 7 -2
v -8 7 -3
v 8 7 -3
v 8 8 2
v 9 8 2
v 8 8 1
v 9 8 1
v 10 8 1
v 8 8 -2
v 9 8 -2
v 10 8 -2
v 8 8 -3
v 9 8 -3
v -7 1 3
v -3 1 3
v 2 1 3
v 6 1 3
v -6 1 2
v -3 1 2
v -2 1 2
v 1 1 2
v 2 1 2
v 5 1 2
v 0 1 1
v 1 1 1
v 2 1 1
v -7 1 -0
v -6 1 -0
v -5 1 -0
v -3 1 -0
v -2 1 -0
v 0 1 -0
v 1 1 -0
v 4 1 -0
v 5 1 -0
v 6 1 -0
v -7 1 -1
v -6 1 -1
v -5 1 -1
v -3 1 -1
v -2 1 -1
v 0 1 -1
v 1 1 -1
v 4 1 -1
v 5 1 -1
v 6 1 -1
v 0 1 -2
v 1 1 -2
v 2 1 -2
v -6 1 -3
v -3 1 -3
v -2 1 -3
v 1 1 -3
v 2 1 -3
v 5 1 -3
v -7 1 -4
v -3 1 -4
v 2 1 -4
v 6 1 -4
v -6 2 2
v -3 2 2
v 2 2 2
v 5 2 2
v -5 2 1
v -3 2 1
v 2 2 1
v 4 2 1
v -6 2 -0
v -5 2 -0
v 4 2 -0
v 5 2 -0
v -6 2 -1
v -5 2 -1
v 4 2 -1
v 5 2 -1
v -5 2 -2
v -3 2 -2
v 2 2 -2
v 4 2 -2
v -6 2 -3
v -3 2 -3
v 2 2 -3
v 5 2 -3
v 3 3 1
v 4 3 1
v 3 3 -0
v 4 3 -0
v 3 3 -1
v 4 3 -1
v 3 3 -2
v 4 3 -2
v -8 8 2
v -6 8 2
v -11 8 1
v -8 8 1
v -12 8 -0
v -11 8 -0
v -12 8 -1
v -11 8 -1
v -11 8 -2
v -8 8 -2
v -8 8 -3
v -6 8 -3
v -6 9 2
v 9 9 2
v 9 9 1
v 10 9 1
v 9 9 -2
v 10 9 -2
v -6 9 -3
v 9 9 -3

# faces
f 3/1/1 2/1/1 1/1/1
f 4/1/1 2/1/1 3/1/1
f 8/1/1 6/1/1 5/1/1
f 9/1/1 6/1/1 8/1/1
f 11/1/1 8/1/1 7/1/1
f 12/1/1 8/1/1 11/1/1
f 13/1/1 10/1/1 9/1/1
f 14/1/1 10/1/1 13/1/1
f 18/1/1 16/1/1 15/1/1
f 19/1/1 16/1/1 18/1/1
f 21/1/1 18/1/1 17/1/1
f 22/1/1 18/1/1 21/1/1
f 23/1/1 20/1/1 19/1/1
f 24/1/1 20/1/1 23/1/1
f 29/1/1 26/1/1 25/1/1
f 30/1/1 26/1/1 29/1/1
f 31/1/1 28/1/1 27/1/1
f 32/1/1 28/1/1 31/1/1
f 37/1/1 34/1/1 33/1/1
f 38/1/1 34/1/1 37/1/1
f 39/1/1 36/1/1 35/1/1
f 40/1/1 36/1/1 39/1/1
f 45/1/1 42/1/1 41/1/1
f 46/1/1 42/1/1 45/1/1
f 47/1/1 44/1/1 43/1/1
f 48/1/1 44/1/1 47/1/1
f 52/1/1 50/1/1 49/1/1
f 53/1/1 50/1/1 52/1/1
f 55/1/1 52/1/1 51/1/1
f 56/1/1 52/1/1 55/1/1
f 57/1/1 54/1/1 53/1/1
f 58/1/1 54/1/1 57/1/1
f 61/1/1 60/1/1 59/1/1
f 62/1/1 60/1/1 61/1/1
f 65/1/1 64/1/1 63/1/1
f 66/1/1 64/1/1 65/1/1
f 70/1/1 68/1/1 67/1/1
f 71/1/1 68/1/1 70/1/1
f 73/1/1 70/1/1 69/1/1
f 73/1/1 72/1/1 71/1/1
f 73/1/1 71/1/1 70/1/1
f 74/1/1 72/1/1 73/1/1
f 75/1/1 73/1/1 69/1/1
f 76/1/1 73/1/1 75/1/1
f 77/1/1 72/1/1 74/1/1
f 78/1/1 72/1/1 77/1/1
f 83/1/1 80/1/1 79/1/1
f 84/1/1 80/1/1 83/1/1
f 85/1/1 82/1/1 81/1/1
f 86/1/1 82/1/1 85/1/1
f 91/1/1 88/1/1 87/1/1
f 92/1/1 88/1/1 91/1/1
f 93/1/1 90/1/1 89/1/1
f 94/1/1 90/1/1 93/1/1
f 99/1/1 96/1/1 95/1/1
f 100/1/1 96/1/1 99/1/1
f 103/1/1 98/1/1 97/1/1
f 104/1/1 98/1/1 103/1/1
f 105/1/1 101/1/1 100/1/1
f 106/1/1 101/1/1 105/1/1
f 107/1/1 103/1/1 102/1/1
f 108/1/1 103/1/1 107/1/1
f 113/1/1 110/1/1 109/1/1
f 114/1/1 110/1/1 113/1/1
f 117/1/1 112/1/1 111/1/1
f 118/1/1 112/1/1 117/1/1
f 119/1/1 115/1/1 114/1/1
f 120/1/1 115/1/1 119/1/1
f 121/1/1 117/1/1 116/1/1
f 122/1/1 117/1/1 121/1/1
f 123/1/2 124/1/2 127/1/2
f 127/1/2 124/1/2 128/1/2
f 125/1/2 126/1/2 131/1/2
f 131/1/2 126/1/2 132/1/2
f 128/1/2 129/1/2 133/1/2
f 133/1/2 129/1/2 134/1/2
f 130/1/2 131/1/2 135/1/2
f 135/1/2 131/1/2 136/1/2
f 134/1/2 129/1/2 137/1/2
f 137/1/2 129/1/2 138/1/2
f 130/1/2 135/1/2 139/1/2
f 139/1/2 135/1/2 140/1/2
f 141/1/2 142/1/2 145/1/2
f 145/1/2 142/1/2 146/1/2
f 143/1/2 144/1/2 147/1/2
f 147/1/2 144/1/2 148/1/2
f 149/1/2 150/1/2 153/1/2
f 153/1/2 150/1/2 154/1/2
f 151/1/2 152/1/2 155/1/2
f 155/1/2 152/1/2 156/1/2
f 157/1/2 158/1/2 161/1/2
f 161/1/2 158/1/2 162/1/2
f 159/1/2 160/1/2 163/1/2
f 163/1/2 160/1/2 164/1/2
f 165/1/2 166/1/2 168/1/2
f 168/1/2 166/1/2 169/1/2
f 167/1/2 168/1/2 171/1/2
f 169/1/2 170/1/2 171/1/2
f 168/1/2 169/1/2 171/1/2
f 171/1/2 170/1/2 172/1/2
f 172/1/2 170/1/2 173/1/2
f 173/1/2 170/1/2 174/1/2
f 172/1/2 173/1/2 175/1/2
f 175/1/2 173/1/2 176/1/2
f 177/1/2 178/1/2 180/1/2
f 180/1/2 178/1/2 181/1/2
f 179/1/2 180/1/2 183/1/2
f 183/1/2 180/1/2 184/1/2
f 181/1/2 182/1/2 185/1/2
f 185/1/2 182/1/2 186/1/2
f 187/1/2 188/1/2 189/1/2
f 189/1/2 188/1/2 190/1/2
f 191/1/2 192/1/2 195/1/2
f 195/1/2 192/1/2 196/1/2
f 193/1/2 194/1/2 197/1/2
f 197/1/2 194/1/2 198/1/2
f 199/1/2 200/1/2 201/1/2
f 201/1/2 200/1/2 202/1/2
f 203/1/2 204/1/2 207/1/2
f 207/1/2 204/1/2 208/1/2
f 205/1/2 206/1/2 209/1/2
f 209/1/2 206/1/2 210/1/2
f 211/1/2 212/1/2 214/1/2
f 214/1/2 212/1/2 215/1/2
f 213/1/2 214/1/2 217/1/2
f 217/1/2 214/1/2 218/1/2
f 215/1/2 216/1/2 219/1/2
f 219/1/2 216/1/2 220/1/2
f 221/1/2 222/1/2 223/1/2
f 223/1/2 222/1/2 224/1/2
f 227/1/3 226/1/3 225/1/3
f 228/1/3 226/1/3 227/1/3
f 231/1/3 230/1/3 229/1/3
f 232/1/3 230/1/3 231/1/3
f 237/1/3 234/1/3 233/1/3
f 240/1/3 236/1/3 235/1/3
f 241/1/3 236/1/3 240/1/3
f 242/1/3 240/1/3 239/1/3
f 243/1/3 240/1/3 242/1/3
f 246/1/3 245/1/3 244/1/3
f 247/1/3 245/1/3 246/1/3
f 249/1/3 248/1/3 247/1/3
f 250/1/3 248/1/3 249/1/3
f 251/1/3 238/1/3 237/1/3
f 251/1/3 237/1/3 233/1/3
f 252/1/3 238/1/3 251/1/3
f 253/1/3 238/1/3 252/1/3
f 254/1/3 238/1/3 253/1/3
f 258/1/3 256/1/3 255/1/3
f 260/1/3 258/1/3 257/1/3
f 261/1/3 256/1/3 258/1/3
f 261/1/3 258/1/3 260/1/3
f 262/1/3 256/1/3 261/1/3
f 264/1/3 260/1/3 259/1/3
f 264/1/3 261/1/3 260/1/3
f 265/1/3 264/1/3 263/1/3
f 266/1/3 264/1/3 265/1/3
f 267/1/3 264/1/3 266/1/3
f 268/1/3 264/1/3 267/1/3
f 272/1/3 264/1/3 268/1/3
f 273/1/3 270/1/3 269/1/3
f 274/1/3 270/1/3 273/1/3
f 275/1/3 272/1/3 271/1/3
f 276/1/3 275/1/3 274/1/3
f 277/1/3 275/1/3 276/1/3
f 278/1/3 272/1/3 275/1/3
f 278/1/3 275/1/3 277/1/3
f 279/1/3 261/1/3 264/1/3
f 279/1/3 272/1/3 278/1/3
f 279/1/3 264/1/3 272/1/3
f 280/1/3 278/1/3 277/1/3
f 281/1/3 278/1/3 280/1/3
f 282/1/3 261/1/3 279/1/3
f 283/1/3 261/1/3 282/1/3
f 284/1/3 261/1/3 283/1/3
f 285/1/3 261/1/3 284/1/3
f 288/1/3 287/1/3 286/1/3
f 289/1/3 287/1/3 288/1/3
f 291/1/3 290/1/3 289/1/3
f 292/1/3 290/1/3 291/1/3
f 296/1/3 294/1/3 293/1/3
f 297/1/3 294/1/3 296/1/3
f 299/1/3 296/1/3 295/1/3
f 300/1/3 296/1/3 299/1/3
f 301/1/3 299/1/3 298/1/3
f 302/1/3 299/1/3 301/1/3
f 305/1/3 304/1/3 303/1/3
f 306/1/3 304/1/3 305/1/3
f 310/1/3 308/1/3 307/1/3
f 311/1/3 308/1/3 310/1/3
f 313/1/3 310/1/3 309/1/3
f 313/1/3 312/1/3 311/1/3
f 313/1/3 311/1/3 310/1/3
f 314/1/3 312/1/3 313/1/3
f 315/1/3 312/1/3 314/1/3
f 316/1/3 312/1/3 315/1/3
f 317/1/3 315/1/3 314/1/3
f 318/1/3 315/1/3 317/1/3
f 321/1/3 320/1/3 319/1/3
f 322/1/3 320/1/3 321/1/3
f 325/1/3 324/1/3 323/1/3
f 326/1/3 324/1/3 325/1/3
f 328/1/3 327/1/3 326/1/3
f 329/1/3 327/1/3 328/1/3
f 333/1/3 331/1/3 330/1/3
f 334/1/3 331/1/3 333/1/3
f 335/1/3 333/1/3 332/1/3
f 336/1/3 333/1/3 335/1/3
f 337/1/4 338/1/4 339/1/4
f 339/1/4 338/1/4 340/1/4
f 340/1/4 341/1/4 342/1/4
f 342/1/4 341/1/4 343/1/4
f 344/1/4 345/1/4 347/1/4
f 347/1/4 345/1/4 348/1/4
f 346/1/4 347/1/4 349/1/4
f 349/1/4 347/1/4 350/1/4
f 351/1/4 352/1/4 354/1/4
f 354/1/4 352/1/4 355/1/4
f 353/1/4 354/1/4 357/1/4
f 357/1/4 354/1/4 358/1/4
f 356/1/4 357/1/4 359/1/4
f 359/1/4 357/1/4 360/1/4
f 361/1/4 362/1/4 363/1/4
f 363/1/4 362/1/4 364/1/4
f 365/1/4 366/1/4 368/1/4
f 368/1/4 366/1/4 369/1/4
f 367/1/4 368/1/4 371/1/4
f 369/1/4 370/1/4 371/1/4
f 368/1/4 369/1/4 371/1/4
f 371/1/4 370/1/4 372/1/4
f 372/1/4 370/1/4 373/1/4
f 373/1/4 370/1/4 374/1/4
f 372/1/4 373/1/4 375/1/4
f 375/1/4 373/1/4 376/1/4
f 377/1/4 378/1/4 379/1/4
f 379/1/4 378/1/4 380/1/4
f 381/1/4 382/1/4 384/1/4
f 383/1/4 384/1/4 386/1/4
f 384/1/4 382/1/4 387/1/4
f 386/1/4 384/1/4 387/1/4
f 387/1/4 382/1/4 388/1/4
f 385/1/4 386/1/4 390/1/4
f 386/1/4 387/1/4 390/1/4
f 389/1/4 390/1/4 391/1/4
f 391/1/4 390/1/4 392/1/4
f 392/1/4 390/1/4 393/1/4
f 393/1/4 390/1/4 394/1/4
f 394/1/4 390/1/4 398/1/4
f 395/1/4 396/1/4 399/1/4
f 399/1/4 396/1/4 400/1/4
f 397/1/4 398/1/4 401/1/4
f 400/1/4 401/1/4 402/1/4
f 402/1/4 401/1/4 403/1/4
f 401/1/4 398/1/4 404/1/4
f 403/1/4 401/1/4 404/1/4
f 390/1/4 387/1/4 405/1/4
f 404/1/4 398/1/4 405/1/4
f 398/1/4 390/1/4 405/1/4
f 403/1/4 404/1/4 406/1/4
f 406/1/4 404/1/4 407/1/4
f 405/1/4 387/1/4 408/1/4
f 408/1/4 387/1/4 409/1/4
f 409/1/4 387/1/4 410/1/4
f 410/1/4 387/1/4 411/1/4
f 412/1/4 413/1/4 414/1/4
f 414/1/4 413/1/4 415/1/4
f 415/1/4 416/1/4 417/1/4
f 417/1/4 416/1/4 418/1/4
f 419/1/4 420/1/4 423/1/4
f 421/1/4 422/1/4 426/1/4
f 426/1/4 422/1/4 427/1/4
f 425/1/4 426/1/4 428/1/4
f 428/1/4 426/1/4 429/1/4
f 430/1/4 431/1/4 432/1/4
f 432/1/4 431/1/4 433/1/4
f 433/1/4 434/1/4 435/1/4
f 435/1/4 434/1/4 436/1/4
f 423/1/4 424/1/4 437/1/4
f 419/1/4 423/1/4 437/1/4
f 437/1/4 424/1/4 438/1/4
f 438/1/4 424/1/4 439/1/4
f 439/1/4 424/1/4 440/1/4
f 441/1/4 442/1/4 443/1/4
f 443/1/4 442/1/4 444/1/4
f 445/1/4 446/1/4 447/1/4
f 447/1/4 446/1/4 448/1/4
f 453/1/5 450/1/5 449/1/5
f 456/1/5 452/1/5 451/1/5
f 458/1/5 456/1/5 455/1/5
f 459/1/5 454/1/5 453/1/5
f 459/1/5 453/1/5 449/1/5
f 460/1/5 454/1/5 459/1/5
f 461/1/5 454/1/5 460/1/5
f 462/1/5 458/1/5 457/1/5
f 463/1/5 456/1/5 458/1/5
f 463/1/5 452/1/5 456/1/5
f 463/1/5 458/1/5 462/1/5
f 464/1/5 452/1/5 463/1/5
f 466/1/5 461/1/5 460/1/5
f 466/1/5 463/1/5 462/1/5
f 466/1/5 462/1/5 461/1/5
f 467/1/5 463/1/5 466/1/5
f 468/1/5 463/1/5 467/1/5
f 469/1/5 463/1/5 468/1/5
f 471/1/5 470/1/5 469/1/5
f 471/1/5 469/1/5 468/1/5
f 472/1/5 470/1/5 471/1/5
f 473/1/5 466/1/5 465/1/5
f 473/1/5 467/1/5 466/1/5
f 474/1/5 467/1/5 473/1/5
f 475/1/5 470/1/5 472/1/5
f 476/1/5 470/1/5 475/1/5
f 477/1/5 473/1/5 465/1/5
f 478/1/5 473/1/5 477/1/5
f 479/1/5 470/1/5 476/1/5
f 480/1/5 470/1/5 479/1/5
f 485/1/5 482/1/5 481/1/5
f 486/1/5 482/1/5 485/1/5
f 487/1/5 484/1/5 483/1/5
f 488/1/5 484/1/5 487/1/5
f 493/1/5 490/1/5 489/1/5
f 494/1/5 490/1/5 493/1/5
f 495/1/5 492/1/5 491/1/5
f 496/1/5 492/1/5 495/1/5
f 501/1/5 498/1/5 497/1/5
f 502/1/5 498/1/5 501/1/5
f 503/1/5 500/1/5 499/1/5
f 504/1/5 500/1/5 503/1/5
f 507/1/5 506/1/5 505/1/5
f 508/1/5 506/1/5 507/1/5
f 514/1/5 510/1/5 509/1/5
f 515/1/5 510/1/5 514/1/5
f 516/1/5 510/1/5 515/1/5
f 517/1/5 512/1/5 511/1/5
f 518/1/5 512/1/5 517/1/5
f 519/1/5 514/1/5 513/1/5
f 519/1/5 515/1/5 514/1/5
f 520/1/5 515/1/5 519/1/5
f 521/1/5 515/1/5 520/1/5
f 524/1/5 512/1/5 518/1/5
f 525/1/5 522/1/5 521/1/5
f 525/1/5 521/1/5 520/1/5
f 526/1/5 522/1/5 525/1/5
f 527/1/5 524/1/5 523/1/5
f 528/1/5 512/1/5 524/1/5
f 528/1/5 524/1/5 527/1/5
f 534/1/5 530/1/5 529/1/5
f 535/1/5 530/1/5 534/1/5
f 536/1/5 534/1/5 533/1/5
f 537/1/5 534/1/5 536/1/5
f 539/1/5 538/1/5 537/1/5
f 540/1/5 538/1/5 539/1/5
f 541/1/5 532/1/5 531/1/5
f 542/1/5 532/1/5 541/1/5
f 547/1/5 544/1/5 543/1/5
f 548/1/5 544/1/5 547/1/5
f 549/1/5 544/1/5 548/1/5
f 552/1/5 546/1/5 545/1/5
f 553/1/5 546/1/5 552/1/5
f 554/1/5 552/1/5 551/1/5
f 555/1/5 552/1/5 554/1/5
f 557/1/5 556/1/5 555/1/5
f 558/1/5 556/1/5 557/1/5
f 560/1/5 549/1/5 548/1/5
f 560/1/5 550/1/5 549/1/5
f 561/1/5 550/1/5 560/1/5
f 562/1/5 550/1/5 561/1/5
f 563/1/5 560/1/5 559/1/5
f 563/1/5 561/1/5 560/1/5
f 564/1/5 561/1/5 563/1/5
f 567/1/5 566/1/5 565/1/5
f 568/1/5 566/1/5 567/1/5
f 571/1/5 569/1/5 568/1/5
f 572/1/5 569/1/5 571/1/5
f 573/1/5 571/1/5 570/1/5
f 574/1/5 571/1/5 573/1/5
f 575/1/6 576/1/6 579/1/6
f 579/1/6 576/1/6 580/1/6
f 577/1/6 578/1/6 583/1/6
f 583/1/6 578/1/6 584/1/6
f 582/1/6 583/1/6 586/1/6
f 586/1/6 583/1/6 587/1/6
f 575/1/6 579/1/6 588/1/6
f 588/1/6 579/1/6 589/1/6
f 580/1/6 581/1/6 591/1/6
f 591/1/6 581/1/6 592/1/6
f 585/1/6 586/1/6 593/1/6
f 593/1/6 586/1/6 594/1/6
f 584/1/6 578/1/6 596/1/6
f 596/1/6 578/1/6 597/1/6
f 589/1/6 590/1/6 599/1/6
f 599/1/6 590/1/6 600/1/6
f 595/1/6 596/1/6 605/1/6
f 605/1/6 596/1/6 606/1/6
f 603/1/6 604/1/6 608/1/6
f 608/1/6 604/1/6 609/1/6
f 598/1/6 599/1/6 611/1/6
f 601/1/6 602/1/6 612/1/6
f 612/1/6 602/1/6 613/1/6
f 609/1/6 610/1/6 614/1/6
f 614/1/6 610/1/6 615/1/6
f 606/1/6 607/1/6 616/1/6
f 598/1/6 611/1/6 617/1/6
f 611/1/6 612/1/6 617/1/6
f 617/1/6 612/1/6 618/1/6
f 615/1/6 616/1/6 619/1/6
f 616/1/6 607/1/6 620/1/6
f 619/1/6 616/1/6 620/1/6
f 621/1/6 622/1/6 625/1/6
f 625/1/6 622/1/6 626/1/6
f 623/1/6 624/1/6 627/1/6
f 627/1/6 624/1/6 628/1/6
f 621/1/6 625/1/6 629/1/6
f 629/1/6 625/1/6 630/1/6
f 628/1/6 624/1/6 631/1/6
f 631/1/6 624/1/6 632/1/6
f 633/1/6 634/1/6 637/1/6
f 635/1/6 636/1/6 640/1/6
f 637/1/6 638/1/6 641/1/6
f 633/1/6 637/1/6 641/1/6
f 641/1/6 638/1/6 642/1/6
f 639/1/6 640/1/6 643/1/6
f 640/1/6 636/1/6 644/1/6
f 643/1/6 640/1/6 644/1/6
f 645/1/6 646/1/6 647/1/6
f 647/1/6 646/1/6 648/1/6
f 649/1/6 650/1/6 651/1/6
f 651/1/6 650/1/6 652/1/6
f 653/1/6 654/1/6 656/1/6
f 655/1/6 656/1/6 658/1/6
f 657/1/6 658/1/6 659/1/6
f 658/1/6 656/1/6 660/1/6
f 659/1/6 658/1/6 660/1/6
f 660/1/6 656/1/6 661/1/6
f 656/1/6 654/1/6 662/1/6
f 661/1/6 656/1/6 662/1/6
f 662/1/6 654/1/6 663/1/6
f 663/1/6 654/1/6 664/1/6
f 665/1/6 666/1/6 667/1/6
f 665/1/6 667/1/6 669/1/6
f 667/1/6 668/1/6 669/1/6
f 669/1/6 668/1/6 670/1/6
f 665/1/6 669/1/6 671/1/6
f 671/1/6 669/1/6 672/1/6
